<svg xmlns="http://www.w3.org/2000/svg" xmlns:xlink="http://www.w3.org/1999/xlink" width="309" zoomAndPan="magnify" viewBox="0 0 231.75 52.499999" height="70" preserveAspectRatio="xMidYMid meet" version="1.0"><defs><g/><clipPath id="4c759d3ff2"><path d="M 109 20 L 146 20 L 146 52.003906 L 109 52.003906 Z M 109 20 " clip-rule="nonzero"/></clipPath><clipPath id="63a7e7dbad"><path d="M 144 1 L 181 1 L 181 52.003906 L 144 52.003906 Z M 144 1 " clip-rule="nonzero"/></clipPath><clipPath id="25b00a8a06"><path d="M 74.296875 23 L 139.675781 23 L 139.675781 49.777344 L 74.296875 49.777344 Z M 74.296875 23 " clip-rule="nonzero"/></clipPath></defs><g fill="#ffffff" fill-opacity="1"><g transform="translate(51.190583, 51.804664)"><g><path d="M 5.296875 -30.171875 L 5.296875 -36.578125 C 5.335938 -41.085938 6.394531 -44.695312 8.46875 -47.40625 C 10.550781 -50.113281 13.429688 -51.46875 17.109375 -51.46875 C 18.679688 -51.46875 20.179688 -51.238281 21.609375 -50.78125 C 23.046875 -50.332031 24.078125 -49.875 24.703125 -49.40625 L 25.703125 -48.75 L 22.0625 -41.40625 C 21.113281 -41.957031 20.070312 -42.234375 18.9375 -42.234375 C 17.644531 -42.234375 16.78125 -41.789062 16.34375 -40.90625 C 15.914062 -40.019531 15.703125 -38.476562 15.703125 -36.28125 L 15.703125 -30.171875 L 22.640625 -30.171875 L 22.640625 -22.234375 L 15.703125 -22.234375 L 15.703125 0 L 5.296875 0 L 5.296875 -22.234375 L 0.9375 -22.234375 L 0.9375 -30.171875 Z M 5.296875 -30.171875 "/></g></g></g><g fill="#ffffff" fill-opacity="1"><g transform="translate(69.894561, 51.804664)"><g/></g></g><g fill="#ffffff" fill-opacity="1"><g transform="translate(82.594867, 51.804664)"><g/></g></g><g fill="#ffffff" fill-opacity="1"><g transform="translate(95.295173, 51.804664)"><g/></g></g><g clip-path="url(#4c759d3ff2)"><g fill="#ffffff" fill-opacity="1"><g transform="translate(108.005957, 51.804664)"><g><path d="M 6.375 -3.59375 C 3.03125 -6.570312 1.359375 -10.394531 1.359375 -15.0625 C 1.359375 -19.726562 3.101562 -23.554688 6.59375 -26.546875 C 10.082031 -29.546875 14.394531 -31.046875 19.53125 -31.046875 C 24.582031 -31.046875 28.84375 -29.535156 32.3125 -26.515625 C 35.78125 -23.503906 37.515625 -19.679688 37.515625 -15.046875 C 37.515625 -10.421875 35.816406 -6.609375 32.421875 -3.609375 C 29.035156 -0.617188 24.738281 0.875 19.53125 0.875 C 14.113281 0.875 9.726562 -0.613281 6.375 -3.59375 Z M 14.4375 -20.171875 C 13.082031 -18.835938 12.40625 -17.128906 12.40625 -15.046875 C 12.40625 -12.972656 13.050781 -11.28125 14.34375 -9.96875 C 15.644531 -8.65625 17.351562 -8 19.46875 -8 C 21.507812 -8 23.1875 -8.664062 24.5 -10 C 25.8125 -11.332031 26.46875 -13.019531 26.46875 -15.0625 C 26.46875 -17.132812 25.789062 -18.835938 24.4375 -20.171875 C 23.082031 -21.503906 21.425781 -22.171875 19.46875 -22.171875 C 17.46875 -22.171875 15.789062 -21.503906 14.4375 -20.171875 Z M 14.4375 -20.171875 "/></g></g></g></g><g clip-path="url(#63a7e7dbad)"><g fill="#ffffff" fill-opacity="1"><g transform="translate(143.520687, 51.804664)"><g><path d="M 5.59375 -3.734375 C 2.769531 -6.804688 1.359375 -10.578125 1.359375 -15.046875 C 1.359375 -19.523438 2.769531 -23.3125 5.59375 -26.40625 C 8.414062 -29.5 12 -31.046875 16.34375 -31.046875 C 20.34375 -31.046875 23.640625 -29.789062 26.234375 -27.28125 L 26.234375 -50.578125 L 36.640625 -50.578125 L 36.640625 0 L 26.34375 0 L 26.34375 -3.40625 L 26.234375 -3.40625 C 23.640625 -0.550781 20.34375 0.875 16.34375 0.875 C 12 0.875 8.414062 -0.660156 5.59375 -3.734375 Z M 14.4375 -20.171875 C 13.082031 -18.835938 12.40625 -17.128906 12.40625 -15.046875 C 12.40625 -12.972656 13.050781 -11.28125 14.34375 -9.96875 C 15.644531 -8.65625 17.351562 -8 19.46875 -8 C 21.507812 -8 23.1875 -8.664062 24.5 -10 C 25.8125 -11.332031 26.46875 -13.019531 26.46875 -15.0625 C 26.46875 -17.132812 25.789062 -18.835938 24.4375 -20.171875 C 23.082031 -21.503906 21.425781 -22.171875 19.46875 -22.171875 C 17.46875 -22.171875 15.789062 -21.503906 14.4375 -20.171875 Z M 14.4375 -20.171875 "/></g></g></g></g><path fill="#ff0000" d="M 101.496094 20.695312 C 101.019531 21.125 100.5 21.519531 100.066406 21.988281 C 99.285156 22.835938 99.148438 23.550781 99.734375 24.519531 C 100.28125 25.425781 100.96875 26.253906 101.640625 27.082031 C 102.679688 28.363281 103.234375 29.789062 103.03125 31.457031 C 102.996094 31.730469 102.960938 32.011719 102.867188 32.269531 C 101.648438 35.488281 99.335938 37.617188 95.941406 39.117188 C 96.558594 38.261719 97.042969 37.683594 97.414062 37.039062 C 97.78125 36.410156 98.03125 35.714844 98.464844 34.761719 C 97.589844 35.179688 97.019531 35.496094 96.414062 35.726562 C 93.835938 36.710938 91.457031 35.617188 90.445312 33.054688 C 89.773438 31.34375 89.773438 29.640625 90.246094 27.886719 C 90.667969 26.316406 91.234375 24.804688 91.953125 23.351562 C 92.109375 23.03125 92.253906 22.707031 92.308594 22.324219 C 90.753906 23.722656 89.632812 25.433594 88.632812 27.238281 C 87.601562 29.109375 87.144531 31.109375 87.386719 33.320312 C 86.082031 33.425781 85.460938 32.609375 84.675781 31.644531 C 84.519531 33.242188 84.792969 34.433594 85.960938 35.332031 C 84.828125 35.820312 84.574219 35.75 82.222656 34.300781 C 82.441406 36.25 83 37.078125 86 39.84375 C 82.925781 38.847656 80.65625 37.175781 79.117188 34.539062 C 78.164062 32.902344 77.578125 31.132812 77.644531 29.257812 C 77.722656 26.960938 78.640625 24.132812 81 22.445312 C 80.121094 24.871094 79.929688 27.132812 81.089844 29.304688 C 81.289062 28.304688 81.472656 27.269531 81.710938 26.25 C 82.167969 24.308594 83.296875 22.714844 84.417969 21.121094 C 84.925781 20.402344 85.46875 19.707031 85.960938 18.980469 C 86.242188 18.558594 86.523438 18.113281 86.679688 17.636719 C 86.984375 16.703125 86.875 15.796875 86.203125 15.023438 C 85.898438 14.675781 85.5625 14.351562 85.226562 14 C 87.222656 14.0625 88.910156 15.75 88.773438 17.542969 C 88.746094 17.902344 88.644531 18.277344 88.488281 18.601562 C 88.066406 19.480469 87.570312 20.320312 87.144531 21.199219 C 86.789062 21.941406 86.445312 22.703125 86.195312 23.488281 C 86.085938 23.832031 86.214844 24.25 86.253906 24.921875 C 86.976562 24.054688 87.535156 23.441406 88.03125 22.78125 C 89.007812 21.488281 90.015625 20.210938 90.664062 18.703125 C 91.605469 16.519531 91.46875 14.84375 89.726562 12.960938 C 88.714844 11.871094 87.601562 10.871094 86.5625 9.804688 C 86.078125 9.308594 85.636719 8.765625 85.21875 8.214844 C 83.519531 5.976562 84.0625 2.277344 86.792969 0.347656 C 87.144531 0.0976562 87.609375 0.00390625 88.132812 0 C 87.9375 0.222656 87.742188 0.445312 87.550781 0.671875 C 85.714844 2.835938 85.863281 4.570312 87.628906 6.625 C 88.339844 7.457031 89.277344 8.113281 90.167969 8.777344 C 91.65625 9.878906 93.246094 10.847656 94.6875 12.011719 C 97.019531 13.894531 97.699219 16.457031 97.335938 19.347656 C 97.109375 21.1875 96.265625 22.777344 95.242188 24.285156 C 94.800781 24.9375 94.390625 25.613281 94.027344 26.308594 C 93.433594 27.453125 93.324219 28.683594 93.527344 29.9375 C 93.792969 31.570312 95.113281 32.632812 96.761719 32.570312 C 97.824219 32.53125 98.183594 32.050781 98.0625 30.960938 C 97.980469 30.242188 97.75 29.625 96.949219 29.085938 C 98.34375 29.410156 98.636719 29.722656 98.96875 31.097656 C 99.597656 30.378906 99.46875 29.632812 99.195312 28.917969 C 99.054688 28.539062 98.761719 28.210938 98.5 27.890625 C 98.265625 27.601562 97.964844 27.371094 97.726562 27.085938 C 96.917969 26.113281 96.691406 24.957031 97.21875 23.851562 C 98.050781 22.101562 99.488281 20.992188 101.496094 20.695312 Z M 101.496094 20.695312 " fill-opacity="1" fill-rule="nonzero"/><g clip-path="url(#25b00a8a06)"><path fill="#ff0000" d="M 139.453125 25.199219 C 139.957031 26.253906 139.261719 27.488281 138.101562 27.613281 C 135.824219 27.859375 133.625 28.0625 131.464844 28.46875 C 128.429688 29.042969 125.4375 29.894531 122.558594 31.039062 C 119.507812 32.253906 116.5 33.578125 113.476562 34.867188 C 112.265625 35.382812 111.570312 36.289062 111.421875 37.609375 C 111.421875 37.613281 111.421875 37.617188 111.421875 37.621094 C 111.390625 37.878906 111.011719 37.867188 110.992188 37.609375 C 110.929688 36.808594 110.847656 35.890625 110.757812 35.96875 C 109.261719 37.207031 107.578125 38.144531 105.839844 39 C 102.828125 40.480469 99.628906 41.386719 96.359375 42.03125 C 93.960938 42.5 91.535156 42.890625 89.105469 43.109375 C 87.070312 43.296875 85.011719 43.21875 82.960938 43.191406 C 81.949219 43.179688 80.933594 43.015625 79.921875 42.933594 C 79.648438 42.914062 79.375 42.929688 78.9375 42.929688 C 80.195312 44.003906 81.578125 44.371094 82.984375 44.503906 C 83.621094 44.566406 84.261719 44.574219 84.921875 44.570312 C 85.421875 44.566406 85.476562 45.296875 84.976562 45.367188 C 84.75 45.398438 84.519531 45.414062 84.285156 45.417969 C 83.21875 45.4375 82.148438 45.421875 80.933594 45.421875 C 81.121094 45.65625 81.199219 45.816406 81.324219 45.902344 C 83.007812 47.023438 84.832031 47.757812 86.871094 47.921875 C 87.699219 47.988281 88.523438 48.136719 89.355469 48.160156 C 93.039062 48.269531 96.640625 47.632812 100.171875 46.660156 C 102.4375 46.035156 104.648438 45.199219 106.886719 44.457031 C 106.886719 44.457031 106.890625 44.457031 106.890625 44.457031 C 107.078125 44.394531 107.195312 44.660156 107.023438 44.757812 C 106.78125 44.894531 106.539062 45.03125 106.289062 45.144531 C 103.164062 46.542969 100.011719 47.882812 96.640625 48.589844 C 95.0625 48.917969 93.457031 49.128906 91.859375 49.34375 C 90.898438 49.472656 89.925781 49.570312 88.957031 49.574219 C 86.4375 49.574219 83.949219 49.21875 81.671875 48.109375 C 78.625 46.621094 76.21875 44.496094 74.800781 41.523438 C 74.308594 40.5 74.375 39.277344 75.011719 38.335938 C 75.472656 37.65625 76.09375 37.1875 76.949219 36.828125 L 76.550781 37.535156 C 75.925781 38.640625 76.386719 40.058594 77.554688 40.558594 C 77.566406 40.5625 77.578125 40.570312 77.589844 40.574219 C 78.207031 40.832031 79.253906 41.097656 79.917969 41.171875 C 82.828125 41.5 85.726562 41.578125 88.667969 41.285156 C 91.386719 41.011719 94.09375 40.695312 96.746094 40.058594 C 100.617188 39.132812 104.433594 38.003906 107.859375 35.875 C 109.890625 34.609375 110.359375 32.058594 107.589844 31.445312 C 106.488281 31.203125 105.386719 30.953125 104.0625 30.65625 C 106.355469 30.460938 108.3125 30.929688 110.210938 31.699219 C 110.964844 32.003906 111.316406 32.453125 112.035156 33.59375 C 112.828125 33.808594 113.5625 33.429688 114.285156 33.183594 C 118.34375 31.792969 122.09375 29.464844 125.917969 27.550781 C 128.855469 26.078125 131.742188 24.484375 134.878906 23.457031 C 135.527344 23.242188 136.222656 23.160156 136.902344 23.058594 C 137.445312 22.976562 137.945312 23.199219 138.292969 23.570312 C 138.769531 24.070312 139.171875 24.609375 139.453125 25.199219 Z M 139.453125 25.199219 " fill-opacity="1" fill-rule="nonzero"/></g><g fill="#ffffff" fill-opacity="1"><g transform="translate(107.043825, 17.158431)"><g><path d="M 2.328125 -5.53125 C 2.953125 -5.53125 3.441406 -5.375 3.796875 -5.0625 C 4.148438 -4.75 4.328125 -4.3125 4.328125 -3.75 C 4.328125 -3.425781 4.265625 -3.125 4.140625 -2.84375 C 4.015625 -2.570312 3.8125 -2.347656 3.53125 -2.171875 C 3.25 -2.003906 2.882812 -1.921875 2.4375 -1.921875 L 1.640625 -1.921875 L 1.640625 0 L 0.765625 0 L 0.765625 -5.53125 Z M 2.4375 -2.765625 C 2.6875 -2.765625 2.882812 -2.816406 3.03125 -2.921875 C 3.175781 -3.023438 3.28125 -3.148438 3.34375 -3.296875 C 3.414062 -3.453125 3.453125 -3.597656 3.453125 -3.734375 C 3.453125 -3.960938 3.375 -4.175781 3.21875 -4.375 C 3.070312 -4.570312 2.820312 -4.671875 2.46875 -4.671875 L 1.640625 -4.671875 L 1.640625 -2.765625 Z M 2.4375 -2.765625 "/></g></g></g><g fill="#ffffff" fill-opacity="1"><g transform="translate(114.720071, 17.158431)"><g><path d="M 3.78125 0 L 2.53125 -1.921875 L 1.640625 -1.921875 L 1.640625 0 L 0.765625 0 L 0.765625 -5.53125 L 2.3125 -5.53125 C 2.9375 -5.53125 3.429688 -5.375 3.796875 -5.0625 C 4.171875 -4.75 4.359375 -4.3125 4.359375 -3.75 C 4.359375 -3.414062 4.285156 -3.101562 4.140625 -2.8125 C 3.992188 -2.519531 3.769531 -2.296875 3.46875 -2.140625 L 4.8125 0 Z M 1.640625 -2.765625 L 2.4375 -2.765625 C 2.789062 -2.765625 3.046875 -2.863281 3.203125 -3.0625 C 3.367188 -3.257812 3.453125 -3.476562 3.453125 -3.71875 C 3.453125 -3.863281 3.421875 -4.003906 3.359375 -4.140625 C 3.296875 -4.285156 3.191406 -4.410156 3.046875 -4.515625 C 2.898438 -4.617188 2.707031 -4.671875 2.46875 -4.671875 L 1.640625 -4.671875 Z M 1.640625 -2.765625 "/></g></g></g><g fill="#ffffff" fill-opacity="1"><g transform="translate(122.84429, 17.158431)"><g><path d="M 0.421875 -2.75 C 0.421875 -3.257812 0.546875 -3.726562 0.796875 -4.15625 C 1.046875 -4.59375 1.382812 -4.941406 1.8125 -5.203125 C 2.25 -5.460938 2.726562 -5.59375 3.25 -5.59375 C 3.75 -5.59375 4.210938 -5.460938 4.640625 -5.203125 C 5.078125 -4.941406 5.425781 -4.59375 5.6875 -4.15625 C 5.945312 -3.726562 6.078125 -3.257812 6.078125 -2.75 C 6.078125 -2.238281 5.945312 -1.769531 5.6875 -1.34375 C 5.4375 -0.914062 5.09375 -0.570312 4.65625 -0.3125 C 4.21875 -0.0625 3.75 0.0625 3.25 0.0625 C 2.726562 0.0625 2.25 -0.0625 1.8125 -0.3125 C 1.382812 -0.5625 1.046875 -0.898438 0.796875 -1.328125 C 0.546875 -1.765625 0.421875 -2.238281 0.421875 -2.75 Z M 1.328125 -2.75 C 1.328125 -2.394531 1.410156 -2.066406 1.578125 -1.765625 C 1.753906 -1.472656 1.988281 -1.238281 2.28125 -1.0625 C 2.582031 -0.882812 2.910156 -0.796875 3.265625 -0.796875 C 3.617188 -0.796875 3.9375 -0.878906 4.21875 -1.046875 C 4.507812 -1.222656 4.738281 -1.460938 4.90625 -1.765625 C 5.070312 -2.066406 5.15625 -2.394531 5.15625 -2.75 C 5.15625 -3.113281 5.066406 -3.445312 4.890625 -3.75 C 4.722656 -4.050781 4.492188 -4.289062 4.203125 -4.46875 C 3.910156 -4.644531 3.59375 -4.734375 3.25 -4.734375 C 2.882812 -4.734375 2.554688 -4.644531 2.265625 -4.46875 C 1.984375 -4.289062 1.753906 -4.050781 1.578125 -3.75 C 1.410156 -3.445312 1.328125 -3.113281 1.328125 -2.75 Z M 1.328125 -2.75 "/></g></g></g><g fill="#ffffff" fill-opacity="1"><g transform="translate(132.373169, 17.158431)"><g><path d="M 2.125 -1.078125 C 2.125 -0.617188 2.035156 -0.226562 1.859375 0.09375 C 1.679688 0.425781 1.429688 0.679688 1.109375 0.859375 C 0.796875 1.035156 0.4375 1.128906 0.03125 1.140625 L 0.03125 0.28125 C 0.394531 0.269531 0.6875 0.148438 0.90625 -0.078125 C 1.125 -0.304688 1.234375 -0.644531 1.234375 -1.09375 L 1.234375 -5.53125 L 2.125 -5.53125 Z M 2.125 -1.078125 "/></g></g></g><g fill="#ffffff" fill-opacity="1"><g transform="translate(138.287901, 17.158431)"><g><path d="M 4.421875 -5.53125 L 4.421875 -4.671875 L 1.640625 -4.671875 L 1.640625 -3.203125 L 4.125 -3.203125 L 4.125 -2.359375 L 1.640625 -2.359375 L 1.640625 -0.84375 L 4.53125 -0.84375 L 4.53125 0 L 0.765625 0 L 0.765625 -5.53125 Z M 4.421875 -5.53125 "/></g></g></g><g fill="#ffffff" fill-opacity="1"><g transform="translate(146.321009, 17.158431)"><g><path d="M 4.0625 -5.53125 L 4.0625 -4.671875 L 2.640625 -4.671875 L 2.640625 0 L 1.75 0 L 1.75 -4.671875 L 0.359375 -4.671875 L 0.359375 -5.53125 Z M 4.0625 -5.53125 "/></g></g></g><g fill="#ffffff" fill-opacity="1"><g transform="translate(153.784661, 17.158431)"><g><path d="M 0.421875 -2.75 C 0.421875 -3.257812 0.546875 -3.726562 0.796875 -4.15625 C 1.046875 -4.59375 1.382812 -4.941406 1.8125 -5.203125 C 2.25 -5.460938 2.726562 -5.59375 3.25 -5.59375 C 3.75 -5.59375 4.210938 -5.460938 4.640625 -5.203125 C 5.078125 -4.941406 5.425781 -4.59375 5.6875 -4.15625 C 5.945312 -3.726562 6.078125 -3.257812 6.078125 -2.75 C 6.078125 -2.238281 5.945312 -1.769531 5.6875 -1.34375 C 5.4375 -0.914062 5.09375 -0.570312 4.65625 -0.3125 C 4.21875 -0.0625 3.75 0.0625 3.25 0.0625 C 2.726562 0.0625 2.25 -0.0625 1.8125 -0.3125 C 1.382812 -0.5625 1.046875 -0.898438 0.796875 -1.328125 C 0.546875 -1.765625 0.421875 -2.238281 0.421875 -2.75 Z M 1.328125 -2.75 C 1.328125 -2.394531 1.410156 -2.066406 1.578125 -1.765625 C 1.753906 -1.472656 1.988281 -1.238281 2.28125 -1.0625 C 2.582031 -0.882812 2.910156 -0.796875 3.265625 -0.796875 C 3.617188 -0.796875 3.9375 -0.878906 4.21875 -1.046875 C 4.507812 -1.222656 4.738281 -1.460938 4.90625 -1.765625 C 5.070312 -2.066406 5.15625 -2.394531 5.15625 -2.75 C 5.15625 -3.113281 5.066406 -3.445312 4.890625 -3.75 C 4.722656 -4.050781 4.492188 -4.289062 4.203125 -4.46875 C 3.910156 -4.644531 3.59375 -4.734375 3.25 -4.734375 C 2.882812 -4.734375 2.554688 -4.644531 2.265625 -4.46875 C 1.984375 -4.289062 1.753906 -4.050781 1.578125 -3.75 C 1.410156 -3.445312 1.328125 -3.113281 1.328125 -2.75 Z M 1.328125 -2.75 "/></g></g></g></svg>